<svg xmlns="http://www.w3.org/2000/svg" viewBox="0 0 100 100">
  <circle cx="50" cy="50" r="48" fill="#FFF4E6" />
  
  <path d="M50 8 C26.8 8 8 26.8 8 50 C8 73.2 26.8 92 50 92 C73.2 92 92 73.2 92 50 C92 26.8 73.2 8 50 8 Z M50 85 C30.7 85 15 69.3 15 50 C15 30.7 30.7 15 50 15 C69.3 15 85 30.7 85 50 C85 69.3 69.3 85 50 85 Z" fill="#E8B09F" opacity="0.3"/>
  <circle cx="50" cy="50" r="45" fill="#FFF4E6" />

  <path d="M50 75 C45 70 38 72 32 68 C27 65 30 55 25 50 C23 48 18 48 20 40 C22 35 28 35 30 38 C32 40 33 47 38 48 C35 40 32 35 35 28 C38 22 45 28 42 35 C40 38 43 45 48 45 C45 35 48 25 52 28 C55 30 52 38 52 45 C58 45 55 35 60 30 C65 25 68 35 62 42 C60 45 58 48 55 50 C62 50 68 45 72 50 C75 55 70 65 65 62 C60 60 62 70 58 72 C52 75 50 70 50 75 Z" fill="#FF7B54" />
  <path d="M48 45 C50 48 52 48 52 45 M38 48 C42 48 45 52 48 50 M52 50 C55 52 58 48 55 50 M32 68 C38 65 42 68 45 70" stroke="#FF5C33" stroke-width="2.5" fill="none" stroke-linecap="round" />
  
  <path d="M12 60 Q 25 55 35 65 T 55 65 T 75 55 T 88 60 L 88 75 Q 75 85 50 85 T 12 75 Z" fill="#00E5FF" opacity="0.8" />
  <path d="M14 68 Q 25 63 35 73 T 55 73 T 75 63 T 86 68 L 86 78 Q 75 88 50 88 T 14 78 Z" fill="#0083B0" opacity="0.6" />
</svg>